PathFileType	4	(X/Y/Z)	RBDS025static.trc
DataRate	CameraRate	NumFrames	NumMarkers	Units	OrigDataRate	OrigDataStartFrame	OrigNumFrames
150.000000	150.000000	4	48	mm	150.000000	131	150
Frame#	Time	L.Ankle			L.Ankle.Medial			L.ASIS			L.GTR			L.Heel.Bottom			L.Heel.Lateral			L.Heel.Top			L.HF			L.Iliac.Crest			L.Knee			L.Knee.Medial			L.MT1			L.MT2			L.MT5			L.PSIS			L.Shank.Bottom.Lateral			L.Shank.Bottom.Medial			L.Shank.Top.Lateral			L.Shank.Top.Medial			L.Thigh.Bottom.Lateral			L.Thigh.Bottom.Medial			L.Thigh.Top.Lateral			L.Thigh.Top.Medial			L.TT			R.Ankle			R.Ankle.Medial			R.ASIS			R.GTR			R.Heel.Bottom			R.Heel.Lateral			R.Heel.Top			R.HF			R.Iliac.Crest			R.Knee			R.Knee.Medial			R.MT1			R.MT2			R.MT5			R.PSIS			R.Shank.Bottom.Lateral			R.Shank.Bottom.Medial			R.Shank.Top.Lateral			R.Shank.Top.Medial			R.Thigh.Bottom.Lateral			R.Thigh.Bottom.Medial			R.Thigh.Top.Lateral			R.Thigh.Top.Medial			R.TT			
		X1	Y1	Z1	X2	Y2	Z2	X3	Y3	Z3	X4	Y4	Z4	X5	Y5	Z5	X6	Y6	Z6	X7	Y7	Z7	X8	Y8	Z8	X9	Y9	Z9	X10	Y10	Z10	X11	Y11	Z11	X12	Y12	Z12	X13	Y13	Z13	X14	Y14	Z14	X15	Y15	Z15	X16	Y16	Z16	X17	Y17	Z17	X18	Y18	Z18	X19	Y19	Z19	X20	Y20	Z20	X21	Y21	Z21	X22	Y22	Z22	X23	Y23	Z23	X24	Y24	Z24	X25	Y25	Z25	X26	Y26	Z26	X27	Y27	Z27	X28	Y28	Z28	X29	Y29	Z29	X30	Y30	Z30	X31	Y31	Z31	X32	Y32	Z32	X33	Y33	Z33	X34	Y34	Z34	X35	Y35	Z35	X36	Y36	Z36	X37	Y37	Z37	X38	Y38	Z38	X39	Y39	Z39	X40	Y40	Z40	X41	Y41	Z41	X42	Y42	Z42	X43	Y43	Z43	X44	Y44	Z44	X45	Y45	Z45	X46	Y46	Z46	X47	Y47	Z47	X48	Y48	Z48	

132	0.8733333333333334	698.0864868164063	100.3538970947266	1055.607543945313	735.6203002929688	114.4821319580078	1130.66845703125	845.32666015625	967.8034057617188	1126.861938476563	759.7950439453125	889.0477294921875	1069.168701171875	638.4329223632813	40.82222366333008	1097.12060546875	664.0410766601563	62.13351058959961	1052.975708007813	648.06689453125	84.98631286621094	1097.103271484375	714.8897705078125	450.6585998535156	1044.452392578125	762.598388671875	1033.22412109375	1074.590087890625	731.9733276367188	515.254638671875	1053.91259765625	729.374267578125	494.0752868652344	1174.697387695313	846.8414916992188	56.03464889526367	1130.160034179688	859.3096313476563	68.87438201904297	1083.591186523438	818.0380249023438	49.89524841308594	1018.227661132813	678.712158203125	1012.119934082031	1178.8505859375	712.5228271484375	198.0843353271484	1042.92919921875	665.4996337890625	199.1452026367188	1073.36083984375	706.91064453125	277.8190612792969	1033.309326171875	660.9099731445313	279.47265625	1061.609130859375	737.72998046875	631.509033203125	1044.016845703125	678.6873779296875	626.5155639648438	1086.739379882813	728.78662109375	740.573974609375	1046.246337890625	676.5045166015625	735.5615234375	1092.321899414063	774.3983154296875	419.1148071289063	1088.00732421875	697.7849731445313	103.0563430786133	1409.001708984375	732.1932373046875	118.8810195922852	1330.178833007813	849.9880981445313	982.67431640625	1335.789428710938	772.5355834960938	898.0874633789063	1403.253173828125	635.2997436523438	40.92523956298828	1366.1875	661.719482421875	62.51423645019531	1407.219604492188	643.4597778320313	85.29796600341797	1366.469604492188	730.8914794921875	456.3988647460938	1425.4970703125	783.2958984375	1042.65087890625	1374.437255859375	738.2073974609375	522.0648803710938	1417.066284179688	735.1271362304688	503.5000305175781	1295.329956054688	846.45849609375	57.09261703491211	1329.425659179688	857.4445190429688	69.29271697998047	1372.58154296875	818.3724365234375	47.38714981079102	1440.671508789063	682.1278076171875	1019.0703125	1276.98291015625	703.3660278320313	202.7927398681641	1422.855834960938	662.4783935546875	205.9178009033203	1391.949096679688	699.0140991210938	286.982177734375	1434.143188476563	656.8173828125	286.0283508300781	1401.641235351563	736.4276123046875	627.9783935546875	1424.055297851563	677.6171264648438	627.818603515625	1382.894653320313	733.3648681640625	738.7297973632813	1425.27880859375	677.6029663085938	737.908447265625	1385.205322265625	780.4570922851563	431.5324401855469	1373.260009765625	
133	0.88	698.0684204101563	100.3673782348633	1055.6103515625	735.6116943359375	114.4826507568359	1130.663696289063	845.3255004882813	967.8089599609375	1126.86572265625	759.7931518554688	889.064697265625	1069.169067382813	638.4334716796875	40.8222541809082	1097.132934570313	664.0375366210938	62.13507843017578	1052.975341796875	648.0584106445313	85.00762939453125	1097.119262695313	714.8973999023438	450.6680908203125	1044.455322265625	762.6006469726563	1033.235107421875	1074.591186523438	731.9937744140625	515.2490844726563	1053.92236328125	729.400146484375	494.0810241699219	1174.682739257813	846.8334350585938	56.03532791137695	1130.160522460938	859.2966918945313	68.87800598144531	1083.585571289063	818.0408325195313	49.89321517944336	1018.228271484375	678.7218627929688	1012.132263183594	1178.858032226563	712.5157470703125	198.0964202880859	1042.918212890625	665.4959106445313	199.1535797119141	1073.362060546875	706.9100952148438	277.8280639648438	1033.305053710938	660.9061279296875	279.4837341308594	1061.606201171875	737.71728515625	631.5188598632813	1044.017700195313	678.6865844726563	626.5156860351563	1086.737670898438	728.7868041992188	740.583740234375	1046.246948242188	676.50830078125	735.568115234375	1092.328979492188	774.404052734375	419.1283569335938	1088.02490234375	697.7822875976563	103.0567932128906	1409.01123046875	732.1922607421875	118.8871078491211	1330.178466796875	849.9970703125	982.6797485351563	1335.786865234375	772.52392578125	898.2548217773438	1403.369750976563	635.2852172851563	40.92816543579102	1366.192260742188	661.7137451171875	62.51412963867188	1407.2294921875	643.44970703125	85.29398345947266	1366.468139648438	730.9017333984375	456.4091796875	1425.494140625	783.301513671875	1042.662719726563	1374.443115234375	738.2112426757813	522.0658569335938	1417.069946289063	735.1248168945313	503.4994812011719	1295.306884765625	846.4550170898438	57.08326721191406	1329.43701171875	857.4432373046875	69.30242919921875	1372.579833984375	818.3711547851563	47.39151382446289	1440.66357421875	682.1353759765625	1019.072387695313	1276.981079101563	703.372314453125	202.7948150634766	1422.855590820313	662.4764404296875	205.921875	1391.95166015625	699.0186767578125	286.98828125	1434.142578125	656.81005859375	286.0365905761719	1401.637939453125	736.4353637695313	627.980224609375	1424.057373046875	677.623046875	627.8255004882813	1382.900512695313	733.3770141601563	738.73388671875	1425.279052734375	677.6101684570313	737.9035034179688	1385.2109375	780.4574584960938	431.5392456054688	1373.260375976563	
134	0.8866666666666667	698.0736694335938	100.3763046264648	1055.612670898438	735.603271484375	114.488639831543	1130.669799804688	845.3306274414063	967.80615234375	1126.8759765625	759.7843017578125	889.068603515625	1069.168701171875	638.422119140625	40.83404159545898	1097.128295898438	664.0267944335938	62.1480712890625	1052.973754882813	648.04541015625	85.01566314697266	1097.128784179688	714.8851928710938	450.6677856445313	1044.463134765625	762.6011352539063	1033.235595703125	1074.582153320313	731.9808959960938	515.2621459960938	1053.922607421875	729.3983154296875	494.0762939453125	1174.703247070313	846.820556640625	56.03562545776367	1130.16259765625	859.2944946289063	68.88565063476563	1083.579711914063	818.033935546875	49.90813446044922	1018.223449707031	678.7302856445313	1012.141662597656	1178.861450195313	712.508544921875	198.1058502197266	1042.920043945313	665.4985961914063	199.1677093505859	1073.361938476563	706.9041748046875	277.8369140625	1033.306396484375	660.9021606445313	279.4918212890625	1061.605590820313	737.7252807617188	631.532470703125	1044.017944335938	678.6922607421875	626.5218505859375	1086.741333007813	728.7860717773438	740.59326171875	1046.250122070313	676.5111083984375	735.576416015625	1092.332275390625	774.4036254882813	419.140869140625	1088.029541015625	697.77978515625	103.0667266845703	1409.004760742188	732.1795654296875	118.8822326660156	1330.191650390625	850.0050048828125	982.6763305664063	1335.779418945313	772.5467529296875	898.0997924804688	1403.25048828125	635.2741088867188	40.93336486816406	1366.187866210938	661.7103881835938	62.52455520629883	1407.223510742188	643.4425659179688	85.30438995361328	1366.4599609375	730.90869140625	456.4061889648438	1425.484008789063	783.3108520507813	1042.661987304688	1374.436279296875	738.2218627929688	522.0689086914063	1417.068115234375	735.1453247070313	503.5010375976563	1295.310668945313	846.4503784179688	57.0997200012207	1329.439819335938	857.433349609375	69.33526611328125	1372.598999023438	818.363037109375	47.40951538085938	1440.67236328125	682.1355590820313	1019.073425292969	1276.974975585938	703.3704833984375	202.8059387207031	1422.847900390625	662.4703369140625	205.9220428466797	1391.9501953125	699.0117797851563	286.9899291992188	1434.140258789063	656.8094482421875	286.0350952148438	1401.637573242188	736.4536743164063	627.9857177734375	1424.057861328125	677.6253051757813	627.8260498046875	1382.90380859375	733.3855590820313	738.73779296875	1425.277099609375	677.6173706054688	737.8981323242188	1385.203002929688	780.4683227539063	431.5523071289063	1373.278686523438	
135	0.8933333333333334	698.058837890625	100.3875503540039	1055.60986328125	735.6126098632813	114.4898681640625	1130.662841796875	845.3462524414063	967.808837890625	1126.8857421875	759.783935546875	889.0823974609375	1069.158447265625	638.4240112304688	40.83322906494141	1097.118530273438	664.0257568359375	62.15421295166016	1052.968994140625	648.0499267578125	85.02198028564453	1097.1259765625	714.8893432617188	450.6792602539063	1044.465087890625	762.6132202148438	1033.2431640625	1074.601196289063	731.9891967773438	515.26953125	1053.924560546875	729.3876953125	494.0724487304688	1174.6953125	846.8250732421875	56.02985382080078	1130.157836914063	859.2933959960938	68.88533782958984	1083.595703125	818.033203125	49.91176605224609	1018.226196289063	678.7359008789063	1012.147277832031	1178.8623046875	712.5184326171875	198.1006622314453	1042.921630859375	665.4880981445313	199.1791076660156	1073.361938476563	706.9075927734375	277.8363037109375	1033.304809570313	660.90234375	279.4994812011719	1061.611083984375	737.727294921875	631.5376586914063	1044.025512695313	678.6889038085938	626.5199584960938	1086.7451171875	728.7825317382813	740.6034545898438	1046.248657226563	676.5113525390625	735.5872192382813	1092.334350585938	774.4075317382813	419.14013671875	1088.049682617188	697.7711791992188	103.0760345458984	1409.008178710938	732.1873779296875	118.8983764648438	1330.185424804688	850.02099609375	982.6691284179688	1335.774658203125	772.5556030273438	898.0951538085938	1403.247192382813	635.2735595703125	40.93872451782227	1366.198120117188	661.7169799804688	62.51510620117188	1407.217651367188	643.4369506835938	85.30686950683594	1366.466430664063	730.9176635742188	456.3983459472656	1425.495361328125	783.3179931640625	1042.66064453125	1374.431030273438	738.22021484375	522.0740966796875	1417.071655273438	735.1664428710938	503.5002136230469	1295.315673828125	846.4624633789063	57.10601043701172	1329.452026367188	857.4400024414063	69.30934143066406	1372.591796875	818.3668823242188	47.40722274780273	1440.676635742188	682.1449584960938	1019.079650878906	1276.97265625	703.3782348632813	202.795654296875	1422.853637695313	662.4691162109375	205.9300842285156	1391.944091796875	699.0289306640625	286.9949645996094	1434.132690429688	656.8160400390625	286.0379638671875	1401.634887695313	736.4573364257813	627.9945068359375	1424.0712890625	677.6338500976563	627.8246459960938	1382.893920898438	733.3917236328125	738.7413330078125	1425.272705078125	677.6315307617188	737.8980712890625	1385.207153320313	780.4761962890625	431.5599975585938	1373.282592773438	
